<?xml version="1.0" encoding="UTF-8" standalone="no"?>
<!DOCTYPE svg PUBLIC "-//W3C//DTD SVG 1.1//EN" "http://www.w3.org/Graphics/SVG/1.1/DTD/svg11.dtd">
<svg version="1.1" xmlns="http://www.w3.org/2000/svg" xmlns:xlink="http://www.w3.org/1999/xlink" preserveAspectRatio="xMidYMid meet" viewBox="6.749999999999773 1.9999999999999432 626.0000000000001 626" width="622" height="622"><defs><path d="M629.75 314C629.75 485.65 490.4 625 318.75 625C147.1 625 7.75 485.65 7.75 314C7.75 142.35 147.1 3 318.75 3C490.4 3 629.75 142.35 629.75 314Z" id="e3gzu8S7sN"></path><path d="M167.89 519.76L443.06 519.76L446.04 419.63L257.12 418.54L257.12 101.55L167.89 101.55L167.89 519.76Z" id="f25jYUUXkd"></path><path d="M274.26 213.61L432.04 213.61L432.04 103.44L274.26 103.44L274.26 213.61Z" id="a2KSQM7mYZ"></path><path d="M277.26 367.98L435.05 367.98L435.05 257.11L277.26 257.11L277.26 367.98Z" id="e2lVM4zF9S"></path><path d="M623.59 314.62C623.59 482.32 487.19 618.46 319.17 618.46C151.16 618.46 14.75 482.32 14.75 314.62C14.75 146.92 151.16 10.78 319.17 10.78C487.19 10.78 623.59 146.92 623.59 314.62Z" id="egQSbLdnM"></path></defs><g><g><use xlink:href="#e3gzu8S7sN" opacity="1" fill="#fcaa21" fill-opacity="1"></use></g><g><g><filter id="shadow12067855" x="149.89" y="83.55" width="324.15" height="464.21" filterUnits="userSpaceOnUse" primitiveUnits="userSpaceOnUse"><feFlood></feFlood><feComposite in2="SourceAlpha" operator="in"></feComposite><feGaussianBlur stdDeviation="1"></feGaussianBlur><feOffset dx="10" dy="10" result="afterOffset"></feOffset><feFlood flood-color="#000000" flood-opacity="0.5"></feFlood><feComposite in2="afterOffset" operator="in"></feComposite><feMorphology operator="dilate" radius="1"></feMorphology><feComposite in2="SourceAlpha" operator="out"></feComposite></filter><path d="M167.89 519.76L443.06 519.76L446.04 419.63L257.12 418.54L257.12 101.55L167.89 101.55L167.89 519.76Z" id="d12qozQyoF" fill="white" fill-opacity="1" filter="url(#shadow12067855)"></path></g><use xlink:href="#f25jYUUXkd" opacity="1" fill="#fe0606" fill-opacity="1"></use><g><use xlink:href="#f25jYUUXkd" opacity="1" fill-opacity="0" stroke="#fe0606" stroke-width="1" stroke-opacity="1"></use></g></g><g><g><filter id="shadow7724649" x="256.26" y="85.44" width="203.78" height="156.18" filterUnits="userSpaceOnUse" primitiveUnits="userSpaceOnUse"><feFlood></feFlood><feComposite in2="SourceAlpha" operator="in"></feComposite><feGaussianBlur stdDeviation="1"></feGaussianBlur><feOffset dx="10" dy="10" result="afterOffset"></feOffset><feFlood flood-color="#000000" flood-opacity="0.5"></feFlood><feComposite in2="afterOffset" operator="in"></feComposite><feMorphology operator="dilate" radius="1"></feMorphology><feComposite in2="SourceAlpha" operator="out"></feComposite></filter><path d="M274.26 213.61L432.04 213.61L432.04 103.44L274.26 103.44L274.26 213.61Z" id="a2NJzC6Qg6" fill="white" fill-opacity="1" filter="url(#shadow7724649)"></path></g><use xlink:href="#a2KSQM7mYZ" opacity="1" fill="#7ca20e" fill-opacity="1"></use><g><use xlink:href="#a2KSQM7mYZ" opacity="1" fill-opacity="0" stroke="#7ca20e" stroke-width="1" stroke-opacity="1"></use></g></g><g><g><filter id="shadow9975055" x="259.26" y="239.11" width="203.78" height="156.88" filterUnits="userSpaceOnUse" primitiveUnits="userSpaceOnUse"><feFlood></feFlood><feComposite in2="SourceAlpha" operator="in"></feComposite><feGaussianBlur stdDeviation="1"></feGaussianBlur><feOffset dx="10" dy="10" result="afterOffset"></feOffset><feFlood flood-color="#000000" flood-opacity="0.5"></feFlood><feComposite in2="afterOffset" operator="in"></feComposite><feMorphology operator="dilate" radius="1"></feMorphology><feComposite in2="SourceAlpha" operator="out"></feComposite></filter><path d="M277.26 367.98L435.05 367.98L435.05 257.11L277.26 257.11L277.26 367.98Z" id="eqykHJMYP" fill="white" fill-opacity="1" filter="url(#shadow9975055)"></path></g><use xlink:href="#e2lVM4zF9S" opacity="1" fill="#595959" fill-opacity="1"></use><g><use xlink:href="#e2lVM4zF9S" opacity="1" fill-opacity="0" stroke="#8f8686" stroke-width="1" stroke-opacity="1"></use></g></g><g><use xlink:href="#egQSbLdnM" opacity="1" fill="#fcaa20" fill-opacity="0"></use><g><use xlink:href="#egQSbLdnM" opacity="1" fill-opacity="0" stroke="#ffffff" stroke-width="1" stroke-opacity="1"></use></g></g></g></svg>