<?xml version="1.0" encoding="UTF-8" standalone="no"?>
<!DOCTYPE svg PUBLIC "-//W3C//DTD SVG 1.1//EN" "http://www.w3.org/Graphics/SVG/1.1/DTD/svg11.dtd">
<svg version="1.1" xmlns="http://www.w3.org/2000/svg" xmlns:xlink="http://www.w3.org/1999/xlink" preserveAspectRatio="xMidYMid meet" viewBox="0 0 1200 800" width="800" height="800"><defs><path d="M904.68 386C904.68 557.65 765.32 697 593.68 697C422.03 697 282.68 557.65 282.68 386C282.68 214.35 422.03 75 593.68 75C765.32 75 904.68 214.35 904.68 386Z" id="b6MBntJzFS"></path><path d="M442.82 591.76L717.99 591.76L720.97 491.63L532.05 490.54L532.05 173.55L442.82 173.55L442.82 591.76Z" id="b1TiaXJHFP"></path><path d="M549.19 285.61L706.97 285.61L706.97 175.44L549.19 175.44L549.19 285.61Z" id="a2chysgeUU"></path><path d="M552.19 439.98L709.98 439.98L709.98 329.11L552.19 329.11L552.19 439.98Z" id="d6NZt91iM6"></path><path d="M898.52 386.62C898.52 554.32 762.12 690.46 594.1 690.46C426.08 690.46 289.68 554.32 289.68 386.62C289.68 218.92 426.08 82.78 594.1 82.78C762.12 82.78 898.52 218.92 898.52 386.62Z" id="h11TAZvTDy"></path></defs><g><g><g><use xlink:href="#b6MBntJzFS" opacity="1" fill="#fcaa21" fill-opacity="1"></use></g><g><g><filter id="shadow16704131" x="424.82" y="155.55" width="324.15" height="464.21" filterUnits="userSpaceOnUse" primitiveUnits="userSpaceOnUse"><feFlood></feFlood><feComposite in2="SourceAlpha" operator="in"></feComposite><feGaussianBlur stdDeviation="1"></feGaussianBlur><feOffset dx="10" dy="10" result="afterOffset"></feOffset><feFlood flood-color="#000000" flood-opacity="0.5"></feFlood><feComposite in2="afterOffset" operator="in"></feComposite><feMorphology operator="dilate" radius="1"></feMorphology><feComposite in2="SourceAlpha" operator="out"></feComposite></filter><path d="M442.82 591.76L717.99 591.76L720.97 491.63L532.05 490.54L532.05 173.55L442.82 173.55L442.82 591.76Z" id="h1dEPdFBKp" fill="white" fill-opacity="1" filter="url(#shadow16704131)"></path></g><use xlink:href="#b1TiaXJHFP" opacity="1" fill="#fe0606" fill-opacity="1"></use><g><use xlink:href="#b1TiaXJHFP" opacity="1" fill-opacity="0" stroke="#fe0606" stroke-width="1" stroke-opacity="1"></use></g></g><g><g><filter id="shadow16320867" x="531.19" y="157.44" width="203.78" height="156.18" filterUnits="userSpaceOnUse" primitiveUnits="userSpaceOnUse"><feFlood></feFlood><feComposite in2="SourceAlpha" operator="in"></feComposite><feGaussianBlur stdDeviation="1"></feGaussianBlur><feOffset dx="10" dy="10" result="afterOffset"></feOffset><feFlood flood-color="#000000" flood-opacity="0.5"></feFlood><feComposite in2="afterOffset" operator="in"></feComposite><feMorphology operator="dilate" radius="1"></feMorphology><feComposite in2="SourceAlpha" operator="out"></feComposite></filter><path d="M549.19 285.61L706.97 285.61L706.97 175.44L549.19 175.44L549.19 285.61Z" id="b90UJL7JWo" fill="white" fill-opacity="1" filter="url(#shadow16320867)"></path></g><use xlink:href="#a2chysgeUU" opacity="1" fill="#7ca20e" fill-opacity="1"></use><g><use xlink:href="#a2chysgeUU" opacity="1" fill-opacity="0" stroke="#7ca20e" stroke-width="1" stroke-opacity="1"></use></g></g><g><g><filter id="shadow9815770" x="534.19" y="311.11" width="203.78" height="156.88" filterUnits="userSpaceOnUse" primitiveUnits="userSpaceOnUse"><feFlood></feFlood><feComposite in2="SourceAlpha" operator="in"></feComposite><feGaussianBlur stdDeviation="1"></feGaussianBlur><feOffset dx="10" dy="10" result="afterOffset"></feOffset><feFlood flood-color="#000000" flood-opacity="0.5"></feFlood><feComposite in2="afterOffset" operator="in"></feComposite><feMorphology operator="dilate" radius="1"></feMorphology><feComposite in2="SourceAlpha" operator="out"></feComposite></filter><path d="M552.19 439.98L709.98 439.98L709.98 329.11L552.19 329.11L552.19 439.98Z" id="e5CUnKbDZy" fill="white" fill-opacity="1" filter="url(#shadow9815770)"></path></g><use xlink:href="#d6NZt91iM6" opacity="1" fill="#595959" fill-opacity="1"></use><g><use xlink:href="#d6NZt91iM6" opacity="1" fill-opacity="0" stroke="#8f8686" stroke-width="1" stroke-opacity="1"></use></g></g><g><use xlink:href="#h11TAZvTDy" opacity="1" fill="#fcaa20" fill-opacity="0"></use><g><use xlink:href="#h11TAZvTDy" opacity="1" fill-opacity="0" stroke="#ffffff" stroke-width="1" stroke-opacity="1"></use></g></g></g></g></svg>